<svg width="6" height="8" viewBox="0 0 6 8" fill="none" xmlns="http://www.w3.org/2000/svg">
<path d="M3.31973 7.03996H2.67973C2.5916 7.03996 2.51973 6.96871 2.51973 6.87996V4.83559L0.742854 5.85121C0.667229 5.89496 0.570354 5.86871 0.525979 5.79309L0.205979 5.24934C0.184104 5.21246 0.177854 5.16871 0.189104 5.12746C0.199729 5.08621 0.226604 5.05121 0.263479 5.02996L2.04035 3.99996L0.263479 2.97059C0.226604 2.94934 0.199729 2.91371 0.189104 2.87246C0.177854 2.83121 0.184104 2.78746 0.205354 2.75059L0.525354 2.20684C0.569729 2.13121 0.667229 2.10559 0.742854 2.14934L2.51973 3.16434V1.11996C2.51973 1.03184 2.5916 0.959961 2.67973 0.959961H3.31973C3.40848 0.959961 3.47973 1.03184 3.47973 1.11996V3.16434L5.2566 2.14934C5.33223 2.10559 5.4291 2.13121 5.47348 2.20684L5.79348 2.75059C5.81535 2.78746 5.8216 2.83121 5.81035 2.87246C5.79973 2.91371 5.77285 2.94934 5.73598 2.97059L3.9591 3.99996L5.73598 5.02934C5.77223 5.05121 5.7991 5.08621 5.81035 5.12746C5.82098 5.16871 5.81535 5.21246 5.79348 5.24934L5.47348 5.79309C5.4291 5.86871 5.33223 5.89496 5.2566 5.85059L3.47973 4.83559V6.87996C3.47973 6.96871 3.40848 7.03996 3.31973 7.03996Z" fill="#343A40"/>
</svg>
