<svg width="166" height="24" viewBox="0 0 166 24" fill="none" xmlns="http://www.w3.org/2000/svg">
<path d="M24.389 1.145C24.5543 1.455 24.6473 1.734 24.668 1.982C24.7093 2.23 24.73 2.59167 24.73 3.067V20.272C24.73 21.698 24.3373 22.535 23.552 22.783C23.1593 22.907 22.6633 22.969 22.064 22.969C21.4647 22.969 20.9893 22.9173 20.638 22.814C20.2867 22.7107 20.018 22.5867 19.832 22.442C19.646 22.2973 19.5013 22.0907 19.398 21.822C19.2947 21.4707 19.243 20.9333 19.243 20.21V9.825C18.7263 10.4657 17.972 11.4887 16.98 12.894C15.988 14.2787 15.3577 15.1467 15.089 15.498C14.8203 15.8493 14.6343 16.0973 14.531 16.242C14.4277 16.366 14.1693 16.552 13.756 16.8C13.3633 17.0273 12.9293 17.141 12.454 17.141C11.9993 17.141 11.5757 17.0377 11.183 16.831C10.811 16.6037 10.5423 16.3867 10.377 16.18L10.129 15.839C9.71567 15.3223 8.89933 14.227 7.68 12.553C6.46067 10.8583 5.79933 9.949 5.696 9.825V20.272C5.696 20.7473 5.67533 21.109 5.634 21.357C5.61333 21.5843 5.52033 21.8427 5.355 22.132C5.045 22.69 4.239 22.969 2.937 22.969C1.67633 22.969 0.891 22.69 0.581 22.132C0.415667 21.8427 0.312333 21.574 0.271 21.326C0.250333 21.078 0.24 20.706 0.24 20.21V3.005C0.24 2.52967 0.250333 2.17833 0.271 1.951C0.312333 1.703 0.415667 1.424 0.581 1.114C0.891 0.576665 1.697 0.307998 2.999 0.307998C3.557 0.307998 4.03233 0.380332 4.425 0.524999C4.83833 0.648999 5.107 0.783332 5.231 0.928L5.417 1.114L12.454 10.352C15.9673 5.702 18.313 2.633 19.491 1.145C19.8423 0.586998 20.669 0.307998 21.971 0.307998C23.2937 0.307998 24.0997 0.586998 24.389 1.145ZM26.7486 14.847C26.7486 12.367 27.6166 10.321 29.3526 8.709C31.0886 7.097 33.0726 6.291 35.3046 6.291C37.5366 6.291 39.5103 7.097 41.2256 8.709C42.941 10.3003 43.7986 12.336 43.7986 14.816C43.7986 16.5313 43.3543 18.0607 42.4656 19.404C41.577 20.7267 40.492 21.7083 39.2106 22.349C37.95 22.969 36.6376 23.279 35.2736 23.279C33.9096 23.279 32.587 22.9483 31.3056 22.287C30.0243 21.605 28.9393 20.613 28.0506 19.311C27.1826 17.9883 26.7486 16.5003 26.7486 14.847ZM33.2276 17.079C33.889 17.575 34.5606 17.823 35.2426 17.823C35.9246 17.823 36.6066 17.5647 37.2886 17.048C37.9706 16.5313 38.3116 15.7667 38.3116 14.754C38.3116 13.7413 37.9913 12.987 37.3506 12.491C36.71 11.995 36.0176 11.747 35.2736 11.747C34.5296 11.747 33.8373 12.0053 33.1966 12.522C32.556 13.0387 32.2356 13.8033 32.2356 14.816C32.2356 15.808 32.5663 16.5623 33.2276 17.079ZM51.1335 8.833C52.1049 7.36567 53.2725 6.632 54.6365 6.632C56.7445 6.632 58.3152 7.531 59.3485 9.329C59.5759 9.019 59.8445 8.69867 60.1545 8.368C60.4852 8.01667 61.0019 7.64467 61.7045 7.252C62.4072 6.83867 63.1305 6.632 63.8745 6.632C65.5279 6.632 66.9125 7.27267 68.0285 8.554C69.1445 9.81467 69.7025 11.9123 69.7025 14.847V20.272C69.7025 20.7473 69.6819 21.109 69.6405 21.357C69.6199 21.5843 69.5269 21.853 69.3615 22.163C69.0929 22.721 68.2972 23 66.9745 23C65.6725 23 64.8769 22.7107 64.5875 22.132C64.4429 21.822 64.3499 21.5533 64.3085 21.326C64.2879 21.078 64.2775 20.7163 64.2775 20.241V14.816C64.2775 13.018 63.6369 12.119 62.3555 12.119C61.6322 12.119 61.1362 12.3567 60.8675 12.832C60.6195 13.3073 60.4955 13.979 60.4955 14.847V20.272C60.4955 20.768 60.4749 21.1297 60.4335 21.357C60.4129 21.5843 60.3199 21.853 60.1545 22.163C59.8652 22.721 59.0592 23 57.7365 23C56.4345 23 55.6389 22.7107 55.3495 22.132C55.2049 21.822 55.1119 21.5533 55.0705 21.326C55.0499 21.078 55.0395 20.7163 55.0395 20.241V14.816C55.0395 13.018 54.3989 12.119 53.1175 12.119C51.8775 12.119 51.2575 13.018 51.2575 14.816V20.303C51.2575 20.7783 51.2369 21.14 51.1955 21.388C51.1749 21.6153 51.0819 21.884 50.9165 22.194C50.6065 22.7313 49.8005 23 48.4985 23C47.1965 23 46.4009 22.721 46.1115 22.163C45.9669 21.853 45.8739 21.5843 45.8325 21.357C45.8119 21.1297 45.8015 20.768 45.8015 20.272V9.36C45.8015 8.88467 45.8119 8.53333 45.8325 8.306C45.8739 8.058 45.9772 7.78933 46.1425 7.5C46.4525 6.942 47.1862 6.663 48.3435 6.663C49.5009 6.663 50.2552 6.849 50.6065 7.221C50.9579 7.593 51.1335 8.13033 51.1335 8.833ZM87.9177 12.894C87.9177 14.1547 87.5974 15.095 86.9567 15.715C86.3367 16.3143 85.6444 16.614 84.8797 16.614H77.5327C77.5327 17.1927 77.8737 17.6783 78.5557 18.071C79.2377 18.4637 79.9197 18.66 80.6017 18.66C81.8004 18.66 82.7407 18.536 83.4227 18.288L83.7637 18.164C84.2597 17.9367 84.673 17.823 85.0037 17.823C85.665 17.823 86.2334 18.288 86.7087 19.218C86.9774 19.776 87.1117 20.2513 87.1117 20.644C87.1117 22.4833 84.9107 23.403 80.5087 23.403C78.9794 23.403 77.6154 23.1447 76.4167 22.628C75.2387 22.0907 74.319 21.388 73.6577 20.52C72.3557 18.846 71.7047 16.9757 71.7047 14.909C71.7047 12.305 72.5417 10.228 74.2157 8.678C75.9104 7.10733 78.0184 6.322 80.5397 6.322C83.4124 6.322 85.5204 7.33467 86.8637 9.36C87.5664 10.4347 87.9177 11.6127 87.9177 12.894ZM81.3767 13.793C82.162 13.793 82.5547 13.4623 82.5547 12.801C82.5547 12.3257 82.3687 11.9433 81.9967 11.654C81.6454 11.3647 81.1287 11.22 80.4467 11.22C79.7854 11.22 79.124 11.499 78.4627 12.057C77.8014 12.5943 77.4707 13.173 77.4707 13.793H81.3767ZM99.0232 6.663C101.09 6.663 102.805 7.45867 104.169 9.05C105.554 10.6207 106.246 12.5427 106.246 14.816V20.272C106.246 20.7473 106.226 21.109 106.184 21.357C106.164 21.5843 106.081 21.8427 105.936 22.132C105.647 22.69 104.841 22.969 103.518 22.969C102.051 22.969 101.204 22.5867 100.976 21.822C100.852 21.4707 100.79 20.9437 100.79 20.241V14.785C100.79 13.9377 100.542 13.2763 100.046 12.801C99.5709 12.3257 98.9199 12.088 98.0932 12.088C97.2872 12.088 96.6259 12.336 96.1092 12.832C95.6132 13.328 95.3652 13.979 95.3652 14.785V20.272C95.3652 20.7473 95.3445 21.109 95.3032 21.357C95.2825 21.5843 95.1895 21.8427 95.0242 22.132C94.7555 22.69 93.9599 22.969 92.6372 22.969C91.3352 22.969 90.5395 22.69 90.2502 22.132C90.1055 21.822 90.0125 21.5533 89.9712 21.326C89.9505 21.078 89.9402 20.7163 89.9402 20.241V9.267C89.9402 8.81233 89.9505 8.47133 89.9712 8.244C90.0125 7.996 90.1159 7.72733 90.2812 7.438C90.5705 6.92133 91.3662 6.663 92.6682 6.663C93.9289 6.663 94.7039 6.90067 94.9932 7.376C95.1999 7.72733 95.3032 8.151 95.3032 8.647C95.3859 8.50233 95.5719 8.29567 95.8612 8.027C96.1505 7.75833 96.4295 7.54133 96.6982 7.376C97.4009 6.90067 98.1759 6.663 99.0232 6.663ZM117.923 12.15L115.908 12.026V16.304C115.908 16.862 115.991 17.265 116.156 17.513C116.342 17.761 116.673 17.885 117.148 17.885C117.644 17.885 118.016 17.9057 118.264 17.947C118.533 17.9677 118.812 18.0607 119.101 18.226C119.577 18.4947 119.814 19.187 119.814 20.303C119.814 21.605 119.525 22.4007 118.946 22.69C118.636 22.8347 118.357 22.9277 118.109 22.969C117.882 22.9897 117.541 23 117.086 23C114.937 23 113.304 22.5143 112.188 21.543C111.072 20.5717 110.514 18.9287 110.514 16.614V12.026C110.122 12.088 109.698 12.119 109.243 12.119C108.789 12.119 108.406 11.9433 108.096 11.592C107.807 11.2407 107.662 10.6413 107.662 9.794C107.662 8.94667 107.714 8.337 107.817 7.965C107.921 7.57233 108.065 7.29333 108.251 7.128C108.582 6.85933 108.995 6.725 109.491 6.725L110.514 6.849V3.656C110.514 3.18067 110.525 2.82933 110.545 2.602C110.587 2.37467 110.69 2.12667 110.855 1.858C111.124 1.34133 111.92 1.083 113.242 1.083C114.648 1.083 115.485 1.46533 115.753 2.23C115.857 2.56067 115.908 3.08767 115.908 3.811V6.849C116.818 6.76633 117.5 6.725 117.954 6.725C118.43 6.725 118.781 6.74567 119.008 6.787C119.256 6.80767 119.535 6.90067 119.845 7.066C120.383 7.33467 120.651 8.13033 120.651 9.453C120.651 10.755 120.372 11.5507 119.814 11.84C119.504 11.9847 119.225 12.0777 118.977 12.119C118.75 12.1397 118.399 12.15 117.923 12.15ZM129.617 22.938C127.53 22.938 125.794 22.1527 124.409 20.582C123.045 18.9907 122.363 17.0583 122.363 14.785V9.36C122.363 8.864 122.373 8.50233 122.394 8.275C122.435 8.04767 122.528 7.779 122.673 7.469C122.962 6.911 123.768 6.632 125.091 6.632C126.538 6.632 127.385 7.02467 127.633 7.81C127.757 8.14067 127.819 8.66767 127.819 9.391V14.816C127.819 15.6633 128.057 16.3247 128.532 16.8C129.028 17.2753 129.679 17.513 130.485 17.513C131.312 17.513 131.973 17.265 132.469 16.769C132.986 16.273 133.244 15.622 133.244 14.816V9.329C133.244 8.85367 133.254 8.50233 133.275 8.275C133.316 8.027 133.42 7.748 133.585 7.438C133.854 6.90067 134.649 6.632 135.972 6.632C137.274 6.632 138.07 6.911 138.359 7.469C138.504 7.779 138.586 8.058 138.607 8.306C138.648 8.53333 138.669 8.88467 138.669 9.36V20.334C138.669 20.7887 138.648 21.14 138.607 21.388C138.586 21.6153 138.493 21.8737 138.328 22.163C138.018 22.7003 137.222 22.969 135.941 22.969C134.68 22.969 133.905 22.721 133.616 22.225C133.409 21.8737 133.306 21.45 133.306 20.954C133.223 21.0987 133.037 21.3053 132.748 21.574C132.459 21.8427 132.18 22.07 131.911 22.256C131.208 22.7107 130.444 22.938 129.617 22.938ZM146.495 8.833C147.466 7.36567 148.634 6.632 149.998 6.632C152.106 6.632 153.677 7.531 154.71 9.329C154.937 9.019 155.206 8.69867 155.516 8.368C155.847 8.01667 156.363 7.64467 157.066 7.252C157.769 6.83867 158.492 6.632 159.236 6.632C160.889 6.632 162.274 7.27267 163.39 8.554C164.506 9.81467 165.064 11.9123 165.064 14.847V20.272C165.064 20.7473 165.043 21.109 165.002 21.357C164.981 21.5843 164.888 21.853 164.723 22.163C164.454 22.721 163.659 23 162.336 23C161.034 23 160.238 22.7107 159.949 22.132C159.804 21.822 159.711 21.5533 159.67 21.326C159.649 21.078 159.639 20.7163 159.639 20.241V14.816C159.639 13.018 158.998 12.119 157.717 12.119C156.994 12.119 156.498 12.3567 156.229 12.832C155.981 13.3073 155.857 13.979 155.857 14.847V20.272C155.857 20.768 155.836 21.1297 155.795 21.357C155.774 21.5843 155.681 21.853 155.516 22.163C155.227 22.721 154.421 23 153.098 23C151.796 23 151 22.7107 150.711 22.132C150.566 21.822 150.473 21.5533 150.432 21.326C150.411 21.078 150.401 20.7163 150.401 20.241V14.816C150.401 13.018 149.76 12.119 148.479 12.119C147.239 12.119 146.619 13.018 146.619 14.816V20.303C146.619 20.7783 146.598 21.14 146.557 21.388C146.536 21.6153 146.443 21.884 146.278 22.194C145.968 22.7313 145.162 23 143.86 23C142.558 23 141.762 22.721 141.473 22.163C141.328 21.853 141.235 21.5843 141.194 21.357C141.173 21.1297 141.163 20.768 141.163 20.272V9.36C141.163 8.88467 141.173 8.53333 141.194 8.306C141.235 8.058 141.339 7.78933 141.504 7.5C141.814 6.942 142.548 6.663 143.705 6.663C144.862 6.663 145.617 6.849 145.968 7.221C146.319 7.593 146.495 8.13033 146.495 8.833Z" fill="#8338EC"/>
</svg>
